<svg xmlns="http://www.w3.org/2000/svg" width="213" height="127" viewBox="0 0 213 127" fill="none">
  <rect width="213" height="126.092" fill="#AD1C44"/>
  <path d="M133.775 35.254C134.465 36.0217 135.14 36.7156 135.751 37.462C137.093 39.1026 137.728 41.0133 137.685 43.1261C137.652 44.7841 136.596 45.6705 134.956 45.5053C132.562 45.2662 129.783 42.887 129.145 40.5312C128.646 38.6885 129.309 37.0636 131.104 35.7632C131.466 35.5008 131.845 35.2637 132.295 34.9643C129.596 32.6163 126.994 30.2624 124.035 28.3264C123.494 30.2974 122.925 30.6259 120.96 30.0272C119.914 29.7085 118.897 29.2925 117.868 28.9212C117.154 28.6627 116.613 28.7677 116.126 29.4558C115.302 30.6142 114.393 31.7202 113.217 32.5502C112.012 33.4016 111.254 33.0789 110.952 31.6289C110.732 30.5715 110.815 29.4985 110.776 28.4334C110.753 27.79 110.585 27.3021 110.008 26.8745C108.494 25.749 108.622 24.6761 110.378 23.9802C111.85 23.3952 113.372 22.9539 114.337 21.5544C114.48 21.3465 114.743 21.1871 114.654 20.8916C114.559 20.5787 114.242 20.6059 114.002 20.5787C97.2617 18.7438 81.9293 25.4691 73.2749 38.9412C72.3292 40.4126 71.5382 41.9676 70.7646 43.5343C70.519 44.03 70.3295 44.5412 70.3295 45.1107C70.3295 46.273 70.9155 46.9592 72.0758 46.9922C72.8765 47.0136 73.681 46.897 74.4855 46.8425C75.4525 46.7765 76.3209 46.9086 77.0132 47.7308C77.5006 48.3081 77.9125 48.1896 78.0692 47.4529C78.2084 46.794 78.2509 46.1059 78.2684 45.4275C78.307 43.9056 78.3341 42.3875 78.6474 40.8869C79.3185 37.6836 81.1925 35.4697 84.1766 34.2646C86.3388 33.3918 88.205 32.1945 89.8005 30.4529C91.7151 28.3634 94.1925 27.1991 96.9871 26.787C98.4801 26.5674 99.8977 26.82 101.012 27.9552C102.588 29.5607 102.242 31.2809 100.197 32.1653C99.5496 32.4452 98.5691 32.4744 99.1087 33.6601C99.1995 33.8622 98.9133 34.0411 98.7663 34.2102C98.5343 34.4784 98.279 34.735 98.0875 35.0304C97.8206 35.4386 97.5305 35.9109 97.8671 36.3755C98.2132 36.8517 98.7528 36.6593 99.2092 36.531C99.9751 36.3172 100.71 35.7224 101.516 36.0101C102.394 36.323 102.164 37.4134 102.64 38.0471C102.787 38.2434 102.795 38.5447 103.162 38.6769C103.375 37.8177 103.489 36.9275 104.137 36.2491C104.404 35.9712 104.129 35.6505 103.986 35.3609C103.466 34.3015 103.489 33.3102 104.363 32.42C104.816 31.9593 104.99 31.4112 104.938 30.7406C104.856 29.7162 105.777 29.0728 106.738 29.4266C107.326 29.6443 107.369 30.0953 107.231 30.6181C106.993 31.5356 106.494 32.3403 106.139 33.2072C105.785 34.0702 105.92 34.2354 106.858 34.1305C107.307 34.0799 107.75 33.9886 108.198 33.9458C109.206 33.8525 109.709 34.214 109.784 35.0557C109.865 35.9381 109.391 36.4941 108.455 36.6087C108.299 36.6282 108.138 36.6282 107.985 36.636C107.858 36.9567 108.121 37.1335 108.177 37.3687C108.27 37.7458 108.452 38.154 108.119 38.465C107.84 38.7255 107.517 38.5311 107.227 38.3717C106.941 38.2143 106.655 38.2279 106.446 38.4961C106.191 38.8207 106.361 39.1045 106.585 39.3611C106.713 39.5069 106.864 39.6332 106.988 39.7809C107.318 40.1736 107.763 40.572 107.407 41.1377C107.077 41.6625 106.516 41.5886 106.003 41.47C104.994 41.2329 104.011 40.9025 103.166 41.9229C102.859 42.2942 102.466 42.0046 102.193 41.6741C101.551 40.8908 100.762 40.8966 99.9344 41.3068C99.5032 41.5206 99.0951 41.7869 98.687 42.0454C97.8922 42.5469 97.3139 43.0853 97.1631 44.1854C96.9388 45.8104 96.0395 47.1283 94.4459 47.8358C93.887 48.0846 93.3532 48.3937 92.8987 48.8174C92.3185 49.3597 91.9395 49.9467 92.3514 50.7864C92.5255 51.1382 92.51 51.5386 92.4114 51.9293C92.3147 52.3103 91.9395 52.8273 92.4829 53.0373C93.1076 53.2802 93.6259 53.9761 94.4285 53.6243C94.7824 53.4688 95.117 53.2452 95.4864 53.1578C96.0317 53.0275 96.1149 52.6738 96.0801 52.215C96.0143 51.3812 96.2483 50.7689 97.1438 50.5162C97.6775 50.3646 97.9077 49.8845 98.1107 49.3811C98.8166 47.6375 100.373 47.3304 101.66 48.6463C102.176 49.175 102.669 49.7484 103.265 50.1722C103.897 50.6231 104.054 51.1246 103.866 51.836C103.752 52.2734 103.698 52.7379 103.971 53.148C104.058 53.2802 104.199 53.2122 104.299 53.1228C104.667 52.8021 104.636 52.39 104.574 51.9585C104.526 51.6222 104.555 51.2684 104.959 51.1771C105.738 51.0022 105.299 50.6931 105.059 50.4093C104.454 49.696 103.851 48.9807 103.23 48.2829C102.625 47.6045 102.685 46.9436 103.238 46.2827C103.791 45.6238 104.441 45.6044 105.137 46.0301C105.897 46.4966 106.415 47.2041 106.955 47.8902C107.885 49.074 108.993 49.7115 110.239 49.7601C109.556 48.6852 109.608 47.6162 110.175 46.551C110.436 46.0592 110.794 45.7152 111.399 45.791C111.977 45.8648 112.374 46.2089 112.463 46.7667C112.581 47.5015 112.867 47.6317 113.472 47.2274C113.78 47.0214 114.161 46.9961 114.503 47.0913C115.54 47.381 116.22 48.244 117.023 48.8699C117.508 49.2489 117.019 50.0206 116.741 50.5629C116.493 51.0449 116.044 51.1013 115.57 50.9944C115.29 50.9302 114.977 50.8778 114.754 50.7145C113.693 49.935 112.617 50.3355 111.529 50.6056C111.2 50.6873 111.169 50.9283 111.078 51.1615C110.933 51.5347 110.724 51.8496 110.32 51.9896C110.099 52.0654 109.788 52.0323 109.873 52.4561C109.943 52.8079 109.954 53.115 110.341 53.3308C111.295 53.8595 112.157 53.356 113.049 53.1753C113.584 53.0664 114.128 52.4677 114.656 53.01C115.166 53.5349 114.77 54.1724 114.621 54.7497C114.532 55.0937 114.3 55.4319 114.317 55.7643C114.377 56.95 113.648 57.1735 112.718 57.2085C111.884 57.2416 111.049 57.1833 110.24 57.5176C109.747 57.7217 109.295 57.4437 108.893 57.1619C108.252 56.7109 107.541 56.6137 106.717 56.6468C106.962 57.3737 106.926 57.9802 106.084 58.1746C105.305 58.3553 104.593 58.3184 104.237 57.4204C104.191 57.3038 104.104 57.0938 104.071 57.1016C103.125 57.2941 102.402 56.33 101.472 56.5826C100.954 56.7245 100.712 56.5379 100.677 56.0637C100.631 55.4436 100.416 54.7439 101.263 54.4212C101.631 54.2812 101.538 53.9275 101.48 53.6631C101.395 53.2724 101.066 53.3269 100.774 53.3813C100.17 53.494 99.7391 53.8206 99.3949 54.3454C98.3699 55.9121 96.6989 56.6312 95.0338 56.8742C94.0823 57.0122 93.1869 57.0919 92.3321 57.5448C91.955 57.745 91.7093 57.9782 91.7944 58.4525C91.9375 59.2495 91.5392 59.819 90.9764 60.3088C90.6611 60.5829 90.2337 60.7908 90.1293 61.2165C89.7986 62.5713 88.8664 63.4227 87.8202 64.2157C87.1201 64.7464 86.6907 65.4286 86.801 66.3869C86.8435 66.7601 86.7217 67.1527 86.6579 67.5337C86.5863 67.9516 86.449 68.4239 86.654 68.7777C87.4817 70.2083 88.1161 71.7186 89.3867 72.9276C90.5741 74.0569 92.0459 73.9072 93.3397 74.4515C93.8212 74.6536 94.1616 74.1793 94.5271 73.9383C95.7997 73.1045 96.053 73.1608 96.608 74.5409C96.8285 75.089 97.1341 75.1668 97.664 74.9977C98.9636 74.5836 99.7681 75.2406 99.2421 76.473C98.5671 78.0552 98.8669 79.0815 100.149 80.1253C100.886 80.7259 101.3 81.6764 101.586 82.621C101.797 83.3188 101.915 84.0497 101.455 84.6756C101.075 85.1945 101.242 85.5639 101.687 85.7913C103.272 86.5999 103.812 87.9372 103.953 89.6418C104.077 91.1307 104.636 92.5361 105.467 93.7995C105.941 94.5187 105.748 95.302 105.725 96.0678C105.672 97.6831 106.286 98.1885 107.773 97.6112C109.823 96.8142 111.459 95.6286 111.666 93.1503C111.743 92.2348 112.12 91.3951 112.923 90.8333C113.184 90.6506 113.254 90.3688 113.302 90.0753C113.364 89.6924 113.433 89.3094 113.486 88.9246C113.756 86.9167 114.389 86.4599 116.332 86.8681C116.723 86.9497 117.12 87.01 117.532 86.9944C117.201 86.6154 116.75 86.6232 116.325 86.5454C115.186 86.3394 114.801 85.7699 115.023 84.6153C115.072 84.3626 115.126 84.0983 115.24 83.8728C115.845 82.6832 116.112 81.5306 115.543 80.1875C115.162 79.2894 115.685 78.4284 116.325 77.7247C116.982 77.0036 117.791 76.4594 118.555 75.8665C119.632 75.0288 120.446 74.0472 120.67 72.6263C120.773 71.979 121.084 71.3629 121.359 70.564C120.527 70.9877 119.864 71.3648 119.17 71.67C118.319 72.0451 117.92 71.8585 117.626 70.9722C117.352 70.1441 117.106 69.3044 116.87 68.4628C116.58 67.4307 116.093 66.5191 115.555 65.5841C114.81 64.2876 114.366 62.8123 113.662 61.4673C113.445 61.0513 113.569 60.4662 114.037 60.1708C114.503 59.8753 114.905 60.1669 115.24 60.4935C115.851 61.0902 116.24 61.8269 116.584 62.6044C117.417 64.4976 118.709 65.9787 120.558 66.9486C121.38 67.3801 122.152 67.3529 122.929 66.8456C124.196 66.0195 125.254 65.0165 125.878 63.5937C126.062 63.1739 126.041 62.9484 125.583 62.7929C124.73 62.5013 123.892 62.167 123.041 61.8677C121.543 61.339 120.736 60.2816 120.61 58.6974C120.57 58.1804 120.668 57.7275 121.231 57.5176C121.759 57.3213 122.185 57.5059 122.54 57.8772C122.761 58.1085 122.941 58.3825 123.121 58.6508C123.413 59.0842 123.776 59.3486 124.329 59.2825C125.136 59.1853 125.77 59.4458 126.221 60.165C126.468 60.5615 126.863 60.925 127.341 60.7053C127.851 60.4682 127.549 59.9648 127.472 59.5779C127.315 58.7849 127.089 58.0055 126.961 57.2085C126.785 56.1123 127.252 55.5214 128.242 55.4922C129.203 55.465 129.613 55.9431 129.563 57.0414C129.534 57.6828 130.443 58.5944 131.11 58.4389C131.802 58.2776 131.934 58.6897 132.166 59.127C132.864 60.4449 133.044 61.8793 133.152 63.3352C133.251 64.6395 133.794 65.7649 134.574 66.7815C134.78 67.0497 135.092 67.3432 135.198 66.7193C135.38 65.6638 135.504 64.5889 135.142 63.551C134.819 62.6238 134.958 62.0193 135.755 61.4887C136.024 61.3098 136.304 61.1504 136.583 60.9872C137.569 60.406 138.202 59.6557 138.004 58.3903C137.91 57.7819 138.033 57.1755 138.474 56.6643C139.116 55.9198 139.582 55.9295 140.157 56.7479C140.402 57.0977 140.565 57.4748 140.602 57.9122C140.619 58.1318 140.633 58.4409 140.77 58.5439C141.47 59.0648 141.895 59.6382 141.601 60.5809C141.501 60.9036 141.82 60.89 142.056 60.8511C142.905 60.717 143.305 61.2049 143.51 61.9357C143.723 62.6957 143.742 63.3391 142.934 63.8697C141.816 64.6025 141.661 65.5452 142.383 66.2936C143.789 64.3887 145.614 62.9659 147.659 61.8463C149.699 60.7306 150.979 61.409 151.233 63.7065C151.567 66.7504 151.024 69.7379 150.211 72.6321C145.514 89.358 135.032 100.513 118.143 104.737C95.3374 110.44 72.3466 96.2408 66.5331 73.2736C66.2295 72.0704 65.7151 71.0791 64.9183 70.15C62.0734 66.8378 59.1512 63.6209 55.8151 60.7753C51.9588 57.4845 47.6983 56.7148 42.9002 58.0502C39.0864 59.1134 35.2998 60.2932 31.3874 60.9813C27.3667 61.6889 23.3189 61.8444 19.2518 61.6344C18.9598 61.6189 18.5304 61.7141 18.5943 61.1835C18.6484 60.7189 19.0333 60.8822 19.2808 60.9016C26.6356 61.4653 33.7081 60.0308 40.6897 57.8986C42.817 57.2493 44.9811 56.7226 47.2207 56.6448C49.7174 56.5574 51.9975 57.2552 54.0727 58.6275C57.635 60.9813 60.5533 64.0447 63.3653 67.2188C64.1079 68.0566 64.8332 68.9099 65.7402 69.9556C65.541 68.2334 65.3321 66.7776 65.2896 65.3062C65.1736 61.2457 65.7711 57.3601 67.9778 53.8575C68.8094 52.5358 69.7532 51.3015 71.0895 50.4482C72.8301 49.3383 74.0021 49.624 75.0019 51.4142C76.5104 54.118 76.8237 56.9831 75.9824 59.955C75.7658 60.7189 75.4815 61.7569 74.5803 61.7219C73.5998 61.683 73.6269 60.5634 73.4722 59.8034C73.2846 58.886 73.1995 57.9472 73.0641 57.018C72.9713 56.3902 72.6812 56.0812 72.0062 56.3338C70.343 56.9558 69.2735 58.126 68.8345 59.8442C68.6682 60.4973 68.763 61.1835 69.3026 61.6403C70.8304 62.9348 71.3313 64.6842 71.486 66.5599C71.7084 69.2384 72.3756 71.705 74.2341 73.7595C74.9516 74.5525 75.4003 75.5516 75.5879 76.6246C75.818 77.9424 75.3848 78.9415 74.4546 79.3614C73.4934 79.7948 72.3311 79.4605 71.5363 78.4692C70.3643 77.0056 69.2213 75.5186 68.0629 74.0452C67.8656 73.7945 67.6568 73.5515 67.4169 73.2619C67.2448 73.5321 67.4053 73.7226 67.4518 73.8994C71.8863 90.6098 86.623 103.234 103.731 104.984C124.9 107.149 144.245 93.4749 149.463 72.6535C150.101 70.1053 150.579 67.5259 150.598 64.8883C150.606 63.9339 150.724 62.791 149.755 62.2506C148.767 61.6986 147.916 62.4975 147.119 63.0028C145.862 63.7998 144.719 64.758 143.68 65.8213C142.839 66.6843 142.855 66.9583 143.851 67.5901C144.822 68.2062 145.15 69.0245 145.057 70.1286C144.955 71.3629 144.829 72.5874 144.216 73.6876C143.592 74.8111 142.772 74.8286 142.085 73.7517C140.969 72.0024 140.909 70.1675 141.687 68.2801C141.953 67.6309 142.081 67.1022 141.499 66.451C140.762 65.6249 141.182 64.239 142.36 63.3585C142.874 62.9756 142.998 62.6082 142.775 62.0484C142.64 61.7063 142.46 61.5683 142.046 61.6092C141.039 61.7063 140.714 61.3915 140.884 60.4215C140.979 59.889 140.884 59.5818 140.437 59.3058C139.907 58.9754 139.896 58.3981 139.828 57.8441C139.786 57.4943 139.66 57.0258 139.292 57.0297C138.927 57.0336 138.809 57.4923 138.749 57.8539C138.722 58.0132 138.685 58.1823 138.714 58.3359C139.043 60.095 138.024 61.0669 136.67 61.7977C135.875 62.2273 135.548 62.653 135.908 63.6404C136.285 64.6744 136.117 65.8193 135.92 66.9117C135.842 67.3393 135.672 67.7436 135.21 67.868C134.744 67.9924 134.394 67.7164 134.121 67.386C133.15 66.2139 132.57 64.8766 132.415 63.341C132.293 62.1281 132.278 60.8841 131.62 59.782C131.46 59.5138 131.421 59.2475 131.067 59.6071C130.86 59.817 130.499 59.7937 130.425 59.5041C130.267 58.8685 129.756 58.6838 129.29 58.4098C128.712 58.0677 128.704 57.5195 128.83 56.9558C128.928 56.5127 128.814 56.258 128.333 56.2405C127.836 56.223 127.578 56.4913 127.662 56.9578C127.814 57.8169 128.052 58.6586 128.219 59.5157C128.352 60.2097 128.6 61.0396 127.764 61.407C126.938 61.7705 126.188 61.4187 125.662 60.6723C125.391 60.2874 125.08 59.9142 124.571 60.0036C123.467 60.1961 122.811 59.646 122.287 58.7732C122.132 58.5147 121.966 58.0793 121.597 58.229C121.181 58.3962 121.357 58.851 121.428 59.1756C121.622 60.0522 122.123 60.6956 122.972 61.0319C123.989 61.4323 125.01 61.8288 126.031 62.2195C126.799 62.513 126.94 62.9989 126.621 63.7531C125.877 65.5005 124.612 66.7348 123.001 67.6561C122.03 68.2121 121.071 68.0527 120.142 67.5628C118.152 66.5113 116.766 64.8921 115.878 62.8396C115.605 62.2078 115.284 61.6208 114.81 61.1232C114.71 61.0163 114.602 60.8278 114.426 60.9736C114.29 61.0844 114.281 61.2807 114.393 61.4148C115.501 62.756 115.625 64.5792 116.682 65.9787C117.564 67.1449 117.667 68.6941 118.106 70.0761C118.448 71.1529 118.487 71.1938 119.481 70.702C120.057 70.4163 120.624 70.0994 121.268 69.9828C121.958 69.8584 122.293 70.1189 122.076 70.8342C121.336 73.2852 120.653 75.7674 118.156 77.1358C117.661 77.4079 117.253 77.8666 116.862 78.2923C116.245 78.9629 116.013 79.7832 116.421 80.6248C116.866 81.5422 116.708 82.3761 116.309 83.2294C116.185 83.4938 116.071 83.7601 115.961 84.0302C115.422 85.3636 115.586 85.6455 117.009 85.9137C117.354 85.9779 117.796 86.0031 118.001 86.2267C118.632 86.9109 118.963 86.4249 119.349 85.9895C120.1 85.144 120.707 84.1741 121.56 83.4199C121.92 83.1011 122.306 82.6735 122.823 82.8873C123.38 83.1186 123.273 83.7192 123.21 84.176C122.825 86.9322 121.925 89.5155 120.469 91.8849C120.111 92.468 119.612 93.0278 118.814 92.7674C117.957 92.4875 117.967 91.71 117.998 90.9888C118.032 90.1491 118.114 89.3114 118.177 88.4736C118.208 88.0557 118.09 87.8361 117.599 87.8089C116.992 87.7739 116.392 87.6164 115.791 87.5076C114.919 87.3482 114.435 87.7408 114.286 88.5883C114.195 89.0976 114.141 89.6146 114.047 90.1239C113.944 90.6681 113.787 91.158 113.285 91.5234C112.65 91.984 112.455 92.7246 112.308 93.469C111.764 96.2253 109.993 97.9883 107.272 98.4975C105.848 98.7638 104.93 98.0952 105.017 96.649C105.098 95.2728 104.843 94.0736 104.162 92.8723C103.474 91.6575 103.182 90.2599 103.085 88.8682C103.019 87.9236 102.636 87.2957 101.851 86.8312C101.495 86.6212 101.182 86.3258 100.87 86.0478C100.464 85.6863 100.31 85.2412 100.609 84.7475C101.228 83.7231 100.987 82.761 100.443 81.8144C99.8919 80.8522 99.2518 79.9639 98.308 79.3458C97.7936 79.0096 97.6717 78.6189 97.9521 78.0299C98.2287 77.4507 98.4279 76.8248 98.5826 76.1989C98.7045 75.7032 98.5246 75.4642 97.9502 75.6838C96.6738 76.1717 96.5346 76.1328 96.0259 74.8635C95.7223 74.1035 95.264 74.1774 94.8636 74.5973C94.0997 75.4 93.2778 75.2756 92.3824 74.9724C92.0168 74.848 91.6397 74.7178 91.2607 74.6886C89.5394 74.5525 88.5589 73.3727 87.6616 72.1093C87.1568 71.4017 86.7526 70.6204 86.3097 69.8681C85.8843 69.1431 85.7218 68.3676 85.921 67.5337C85.9442 67.4384 85.9945 67.3432 85.9868 67.2519C85.7934 65.1565 86.8319 63.7648 88.5009 62.6996C88.7504 62.5402 88.9573 62.2156 89.0521 61.924C89.3518 61.0085 89.7831 60.2174 90.5915 59.6421C90.9744 59.37 91.1582 58.9365 91.0499 58.4389C90.8835 57.6634 91.2587 57.2357 91.9279 56.9267C92.9374 56.4621 93.9102 56.1939 95.0841 56.0987C96.4611 55.9879 97.9986 55.292 98.8437 53.8614C99.3137 53.0645 100.045 52.7127 100.919 52.6194C101.516 52.5552 102.077 52.7185 102.191 53.3774C102.302 54.0111 102.532 54.7672 101.658 55.1268C101.487 55.1968 101.23 55.189 101.265 55.4514C101.3 55.7216 101.54 55.6749 101.725 55.6438C102.155 55.57 102.464 55.7624 102.76 56.0442C102.893 56.1725 103.106 56.3338 103.253 56.3086C104.131 56.1531 104.829 56.2328 105.069 57.2902C105.114 57.4845 105.419 57.5429 105.665 57.469C105.965 57.3796 106.082 57.1813 106.019 56.88C105.823 55.9548 106.373 55.8129 107.08 55.879C107.85 55.9509 108.622 56.0306 109.277 56.5224C109.629 56.7848 109.991 56.8567 110.449 56.6876C111.151 56.4271 111.913 56.4913 112.652 56.4757C113.192 56.4641 113.532 56.3533 113.606 55.6846C113.679 55.0257 113.967 54.3901 114.19 53.6476C113.366 53.8575 112.648 54.0713 111.919 54.2171C110.206 54.5611 108.937 53.6048 108.775 51.8807C108.738 51.4998 108.968 51.3656 109.297 51.3365C109.552 51.3132 109.815 51.3345 110.061 51.2782C110.252 51.2335 110.391 51.0624 110.378 50.8447C110.366 50.6328 110.175 50.6309 110.02 50.6037C108.26 50.2888 106.997 49.2508 105.976 47.8358C105.655 47.3907 105.28 46.9844 104.8 46.6948C104.464 46.4907 104.135 46.4402 103.841 46.7648C103.528 47.1108 103.551 47.4587 103.845 47.8066C104.408 48.4714 104.957 49.1498 105.529 49.8048C105.854 50.1761 106.127 50.5726 106.26 51.0469C106.394 51.5192 106.334 51.9488 105.713 51.8768C105.232 51.8205 105.187 51.9876 105.201 52.4055C105.23 53.2122 104.605 54.1452 104.065 54.0616C103.18 53.9255 103.021 53.0295 103.172 52.4833C103.52 51.2237 102.795 50.6309 102.039 49.97C101.723 49.694 101.404 49.4199 101.108 49.1226C100.271 48.2867 99.2885 48.45 98.8553 49.5832C98.5459 50.3918 98.1223 51.0119 97.2791 51.2821C96.8421 51.422 96.8169 51.7855 96.8459 52.1509C96.9194 53.0839 96.521 53.5076 95.643 53.945C94.413 54.5592 93.4518 54.4251 92.3089 53.842C91.4966 53.4279 91.2645 52.9614 91.5662 52.1606C91.719 51.7563 91.837 51.354 91.6397 50.94C91.1272 49.869 91.6049 49.0662 92.3321 48.3392C92.9355 47.7347 93.7032 47.379 94.4459 46.9922C95.7842 46.2964 96.2696 45.0621 96.5616 43.6917C96.6467 43.2952 96.5133 43.165 96.1246 43.1766C95.527 43.1961 94.9777 43.2991 94.5426 43.7656C94.1248 44.2127 93.6104 44.444 92.9857 44.3895C92.0362 44.306 91.603 43.7734 91.9182 42.8812C92.2412 41.9657 92.2741 41.1688 91.7596 40.2941C91.396 39.6779 91.7248 39.0365 92.1271 38.4942C92.5816 37.8799 93.1501 37.3532 93.1733 36.4824C93.1849 36.014 93.5872 35.7574 94.0765 35.8176C94.5813 35.8798 94.9429 36.1733 94.9352 36.6982C94.9294 37.2094 94.9971 37.5942 95.4283 37.9596C95.8867 38.3484 95.6662 38.9296 95.5192 39.4213C95.3258 40.0686 95.3974 40.5545 96.1072 40.8228C96.3373 40.9102 96.608 41.0871 96.7028 41.2951C97.1592 42.2942 97.6272 41.8957 98.2771 41.4603C99.1435 40.8811 99.9983 40.1561 101.174 40.3155C101.826 40.4029 102.317 40.7528 102.855 41.1066C103.052 41.2368 103.758 40.4224 104.441 40.4593C104.965 40.4885 105.454 40.6381 105.951 40.7625C106.2 40.8247 106.52 40.9783 106.67 40.7528C106.866 40.4651 106.496 40.3193 106.328 40.158C105.845 39.6915 105.411 39.1939 105.632 38.467C105.879 37.6564 106.576 37.499 107.324 37.4893C106.939 36.2278 107.036 36.0587 108.307 35.8837C108.747 35.8235 109.08 35.6971 109.045 35.1937C109.007 34.63 108.568 34.6611 108.179 34.6961C107.634 34.7447 107.094 34.8652 106.549 34.8885C105.454 34.9352 105.083 34.4531 105.334 33.388C105.529 32.558 106.03 31.8602 106.307 31.0671C106.396 30.8125 106.622 30.5404 106.4 30.2508C106.291 30.1089 106.117 30.103 105.959 30.1672C105.545 30.3382 105.674 30.6803 105.7 30.9972C105.754 31.7222 105.491 32.3461 104.992 32.8418C104.247 33.5823 104.228 34.3637 104.771 35.2034C105.04 35.6194 105.174 36.1034 104.87 36.4766C104.278 37.2074 104.102 38.0879 103.773 38.9237C103.468 39.7051 102.907 39.7401 102.402 39.0501C101.981 38.4747 101.687 37.8197 101.484 37.1336C101.35 36.6787 101.108 36.5932 100.694 36.7642C100.25 36.9489 99.7971 37.1316 99.3349 37.2618C98.5962 37.4698 97.8187 37.5631 97.2927 36.8653C96.7492 36.1461 97.0064 35.3861 97.43 34.6903C97.5963 34.4162 97.8148 34.1732 98.0198 33.9244C98.1861 33.7242 98.3583 33.5473 98.2906 33.2422C98.0914 32.3383 98.6194 31.936 99.3755 31.6988C99.4974 31.66 99.6153 31.6055 99.7333 31.5531C100.383 31.2693 101.149 31.0419 101.213 30.1944C101.279 29.3216 100.791 28.6472 100.11 28.1496C99.1667 27.4595 98.0759 27.3429 96.9678 27.5353C94.2873 27.9999 91.9337 29.1428 90.1003 31.1954C88.6885 32.7757 87.0311 33.9419 85.0565 34.6767C81.1925 36.115 79.3533 39.0151 79.0942 43.0445C79.0129 44.304 78.9936 45.5694 78.9162 46.8289C78.893 47.2119 78.8137 47.6025 78.6919 47.966C78.3032 49.1381 77.634 49.3791 76.787 48.5083C75.9341 47.6317 74.998 47.4607 73.886 47.6337C73.4103 47.7075 72.9229 47.7231 72.4394 47.7347C70.2115 47.7891 69.0608 46.2497 69.7357 44.0921C70.1051 42.9104 70.7491 41.853 71.3487 40.7839C77.3768 30.0272 86.5515 23.5254 98.3892 20.6526C103.464 19.4222 108.602 19.4047 113.764 19.8828C113.828 19.8887 113.894 19.8925 113.956 19.9062C114.545 20.0325 115.294 19.9878 115.545 20.6389C115.81 21.327 115.139 21.7177 114.766 22.1842C113.867 23.3096 112.731 24.0405 111.333 24.3845C110.964 24.4759 110.612 24.6644 110.269 24.8394C109.647 25.1581 109.531 25.6732 110.138 26.0134C111.521 26.7889 111.509 28.0679 111.536 29.3741C111.552 30.1166 111.521 30.8611 111.683 31.5997C111.855 32.3772 112.244 32.4841 112.838 32.0215C113.869 31.2207 114.648 30.1827 115.441 29.1623C116.41 27.9144 116.719 27.788 118.241 28.2701C119.377 28.6297 120.487 29.0651 121.616 29.4441C122.156 29.6249 122.765 29.7415 123.039 29.0806C123.304 28.4431 123.366 27.7667 122.703 27.2438C121.434 26.2447 120.169 25.234 119.133 23.9822C118.711 23.4729 118.048 22.9248 118.431 22.2114C118.785 21.5506 119.589 21.7935 120.212 21.8266C121.815 21.9102 123.293 22.4933 124.749 23.0997C129.313 25.0007 133.421 27.6461 137.136 30.9077C137.635 31.347 138.571 31.8291 138.146 32.5619C137.755 33.2325 136.832 32.7601 136.173 32.5891C134.575 32.1731 133.102 31.4287 131.636 30.6862C129.625 29.6657 127.623 28.6238 125.612 27.6014C125.072 27.3274 124.521 27.0669 123.813 26.9483C123.933 27.3818 124.264 27.5217 124.521 27.7006C127.339 29.654 129.94 31.8777 132.489 34.1635C132.901 34.5328 133.224 34.6125 133.755 34.4143C137.538 33.0109 139.565 33.5279 142.236 36.601C144.709 39.4447 146.289 42.8151 147.693 46.2711C148.937 49.3305 149.991 52.458 150.705 55.6885C151.463 59.1309 153.774 61.2535 156.762 62.6802C161.904 65.1351 167.321 66.1439 173.019 65.4772C176.442 65.0768 179.826 64.3751 183.267 64.1108C186.75 63.8425 190.151 64.1768 193.443 65.4034C193.654 65.483 193.867 65.5588 194.072 65.6521C194.271 65.7435 194.499 65.8057 194.381 66.1361C194.251 66.4977 194.037 66.4432 193.774 66.3325C188.705 64.1905 183.501 64.6356 178.265 65.4811C174.701 66.0564 171.129 66.6726 167.501 66.3383C163.36 65.9593 159.371 64.9738 155.69 62.9562C152.594 61.2573 150.62 58.781 149.803 55.2123C148.595 49.9273 146.663 44.8794 143.899 40.1891C143.075 38.7916 142.143 37.4737 140.977 36.3386C138.706 34.1266 136.757 33.8214 133.783 35.2598L133.775 35.254ZM66.0496 64.9718C66.0206 66.4102 66.2469 68.2723 66.5679 70.1228C66.6434 70.5601 66.6279 71.046 66.9219 71.4192C68.6992 73.6779 70.4707 75.9404 72.2789 78.1737C72.7605 78.7685 73.4586 79.0212 74.1877 78.6558C74.8975 78.3001 74.971 77.6003 74.8859 76.8889C74.766 75.8918 74.3308 74.9938 73.683 74.2804C71.66 72.0509 70.9619 69.3628 70.7221 66.4569C70.5983 64.9582 70.227 63.5063 69.0318 62.445C67.9372 61.4712 67.7999 60.2894 68.2969 59.0026C68.8423 57.5895 69.817 56.5263 71.1746 55.8654C72.7856 55.0821 73.4992 55.4514 73.8222 57.2144C74.0098 58.2309 74.122 59.2611 74.296 60.2816C74.3308 60.4818 74.3502 60.7947 74.6248 60.8103C74.8955 60.8258 74.9478 60.5343 75.0116 60.3282C75.9631 57.2552 75.9476 54.2696 74.1684 51.4628C73.5437 50.4754 72.9248 50.318 71.8786 50.8428C70.813 51.3773 70.0394 52.2462 69.3412 53.185C66.831 56.5477 66.0303 60.4157 66.0458 64.9699L66.0496 64.9718ZM136.975 42.8676C137.001 40.4535 135.159 37.0403 133.152 35.769C133.011 35.6796 132.897 35.6213 132.715 35.6563C130.783 36.0314 129.216 38.741 129.951 40.607C130.814 42.7996 132.491 44.1505 134.74 44.7141C136.15 45.0679 136.96 44.3371 136.975 42.8676ZM137.289 32.1712C137.128 31.9438 137.086 31.8524 137.016 31.7921C132.763 28.0504 128.083 25.0182 122.715 23.1405C121.985 22.8859 121.252 22.6313 120.467 22.6118C120.183 22.6041 119.854 22.5496 119.68 22.849C119.479 23.1969 119.727 23.4749 119.922 23.7178C120.697 24.678 121.653 25.4517 122.61 26.2194C122.705 26.2952 122.865 26.4138 122.933 26.3808C124.159 25.7976 125.12 26.6023 126.093 27.0591C128.629 28.2487 131.112 29.553 133.628 30.7833C134.748 31.3315 135.869 31.8913 137.287 32.1731L137.289 32.1712ZM118.713 91.0063C118.76 91.4106 118.574 91.9005 119.096 92.021C119.552 92.1279 119.788 91.7216 119.972 91.3951C121.16 89.2745 121.925 86.9906 122.502 84.6367C122.562 84.3918 122.641 84.0749 122.343 83.9525C122.121 83.8611 121.941 84.0944 121.786 84.2499C120.806 85.2237 120.109 86.456 119.023 87.3346C118.878 87.4512 118.878 87.6126 118.891 87.7739C118.986 88.874 118.891 89.9625 118.713 91.0063ZM96.4746 42.4322C96.2541 41.7324 95.8461 41.4856 95.3993 41.2893C94.8191 41.0346 94.4188 40.5196 94.6838 39.9909C95.3664 38.6302 93.8425 37.8411 93.9837 36.6126C93.9199 37.5631 93.3281 38.1637 92.8078 38.8071C92.3862 39.33 92.245 39.8587 92.6531 40.4885C93.094 41.1649 92.9858 41.9054 92.7575 42.6402C92.6686 42.9259 92.363 43.2602 92.7053 43.5187C93.0438 43.7753 93.4905 43.7209 93.7709 43.4196C94.4846 42.6596 95.3587 42.3622 96.4727 42.4322H96.4746ZM110.467 48.1176C110.455 49.3655 111.325 50.0303 112.414 49.6027C113.043 49.3558 113.606 49.4374 114.186 49.6726C114.602 49.8417 115.01 50.0361 115.431 50.1936C115.874 50.3588 116.153 50.1994 116.321 49.7426C116.485 49.2955 116.348 49.0915 115.917 48.9612C115.679 48.8893 115.375 48.7688 115.269 48.5764C114.743 47.6278 114.074 47.7036 113.244 48.1351C112.627 48.4559 112.124 48.2848 111.906 47.5442C111.792 47.1574 111.792 46.549 111.279 46.5782C110.712 46.6112 110.678 47.243 110.548 47.6997C110.504 47.8552 110.486 48.0166 110.467 48.1176ZM144.371 69.9828C144.398 69.0459 143.841 68.2432 142.971 67.8913C142.715 67.7883 142.623 67.8719 142.539 68.0721C141.826 69.8098 141.557 71.5397 142.636 73.2425C142.772 73.4563 142.88 73.7537 143.178 73.7226C143.458 73.6934 143.559 73.398 143.665 73.1686C144.133 72.1598 144.282 71.0771 144.369 69.9828H144.371Z" fill="white"/>
</svg>