<svg xmlns="http://www.w3.org/2000/svg" width="584" height="273" viewBox="0 0 584 273" fill="none">
    <path d="M382.811 49.4836C385.102 51.9092 387.341 54.1015 389.369 56.4596C393.823 61.6426 395.928 67.6791 395.786 74.3542C395.677 79.5924 392.174 82.3927 386.732 81.8707C378.787 81.1154 369.566 73.5989 367.448 66.1561C365.792 60.3345 367.993 55.2007 373.949 51.0925C375.149 50.2635 376.406 49.5143 377.902 48.5686C368.943 41.1504 360.312 33.7137 350.493 27.5974C348.696 33.8243 346.81 34.8621 340.29 32.9707C336.818 31.9636 333.443 30.6494 330.029 29.4765C327.661 28.6598 325.864 28.9914 324.247 31.1652C321.513 34.8252 318.497 38.3194 314.595 40.9416C310.597 43.6313 308.082 42.6119 307.08 38.0308C306.349 34.6901 306.625 31.3004 306.496 27.9351C306.419 25.9025 305.861 24.3611 303.949 23.0101C298.924 19.4545 299.348 16.0648 305.174 13.8663C310.058 12.0179 315.108 10.6239 318.311 6.20248C318.786 5.5454 319.658 5.04185 319.363 4.10843C319.049 3.11974 317.996 3.20571 317.2 3.11974C261.652 -2.67727 210.776 18.5703 182.059 61.1329C178.921 65.7815 176.296 70.6942 173.729 75.6438C172.914 77.2097 172.285 78.8248 172.285 80.6241C172.285 84.2963 174.23 86.4641 178.08 86.5685C180.737 86.636 183.407 86.2676 186.076 86.0956C189.285 85.8868 192.166 86.3044 194.464 88.902C196.081 90.7259 197.448 90.3513 197.967 88.0239C198.429 85.9421 198.571 83.7682 198.628 81.6251C198.757 76.8167 198.847 72.0207 199.886 67.2799C202.113 57.1597 208.331 50.1652 218.233 46.3578C225.408 43.6006 231.6 39.8178 236.895 34.3155C243.248 27.7141 251.468 24.0357 260.741 22.7338C265.695 22.0399 270.399 22.8382 274.096 26.4245C279.326 31.4969 278.177 36.9316 271.394 39.7257C269.244 40.61 265.991 40.7021 267.781 44.448C268.083 45.0867 267.133 45.6516 266.645 46.1859C265.875 47.0333 265.028 47.8439 264.393 48.7774C263.507 50.0669 262.545 51.5592 263.661 53.0269C264.81 54.5314 266.6 53.9234 268.115 53.5181C270.656 52.8426 273.095 50.9635 275.771 51.8724C278.684 52.8611 277.92 56.3061 279.499 58.308C279.987 58.9283 280.012 59.8801 281.232 60.2977C281.938 57.5834 282.316 54.7709 284.466 52.6277C285.352 51.7496 284.44 50.7363 283.965 49.8213C282.239 46.4745 282.316 43.3427 285.217 40.5301C286.718 39.0747 287.296 37.343 287.123 35.2244C286.853 31.9881 289.908 29.9555 293.097 31.0731C295.048 31.7609 295.189 33.1856 294.734 34.8375C293.944 37.736 292.289 40.2783 291.108 43.0172C289.933 45.7438 290.383 46.2657 293.495 45.9341C294.984 45.7745 296.453 45.4858 297.942 45.3507C301.286 45.056 302.954 46.1982 303.204 48.8572C303.474 51.6452 301.902 53.4015 298.796 53.7638C298.276 53.8252 297.743 53.8252 297.236 53.8497C296.813 54.863 297.686 55.4218 297.872 56.1649C298.18 57.3562 298.783 58.6458 297.679 59.6283C296.755 60.4512 295.683 59.8371 294.721 59.3336C293.771 58.8362 292.821 58.8791 292.128 59.7266C291.281 60.7521 291.846 61.6487 292.59 62.4593C293.014 62.9199 293.514 63.319 293.925 63.7857C295.022 65.0262 296.498 66.2851 295.318 68.0721C294.22 69.7301 292.359 69.4968 290.659 69.1222C287.309 68.373 284.049 67.329 281.244 70.553C280.224 71.7259 278.921 70.8109 278.017 69.767C275.886 67.2922 273.268 67.3106 270.521 68.6063C269.09 69.2818 267.736 70.1231 266.382 70.9399C263.745 72.5242 261.826 74.2253 261.325 77.701C260.581 82.8348 257.597 86.9983 252.309 89.2336C250.454 90.0197 248.683 90.9961 247.175 92.3348C245.25 94.0481 243.992 95.9026 245.359 98.5555C245.937 99.667 245.885 100.932 245.558 102.166C245.237 103.37 243.992 105.003 245.795 105.667C247.868 106.434 249.588 108.633 252.251 107.521C253.426 107.03 254.536 106.324 255.761 106.047C257.571 105.636 257.847 104.518 257.732 103.069C257.513 100.435 258.29 98.5003 261.261 97.7019C263.032 97.2229 263.796 95.7061 264.47 94.1156C266.812 88.6073 271.978 87.637 276.245 91.7944C277.959 93.4647 279.595 95.2763 281.572 96.615C283.67 98.0397 284.19 99.624 283.568 101.872C283.189 103.253 283.009 104.721 283.914 106.017C284.203 106.434 284.671 106.219 285.005 105.937C286.224 104.924 286.122 103.622 285.916 102.258C285.756 101.196 285.852 100.078 287.193 99.7898C289.779 99.2372 288.323 98.2608 287.527 97.3642C285.518 95.1105 283.516 92.8506 281.456 90.646C279.448 88.5029 279.647 86.415 281.482 84.327C283.317 82.2453 285.473 82.1839 287.784 83.5287C290.306 85.0025 292.026 87.2378 293.816 89.4056C296.903 93.1454 300.58 95.1596 304.712 95.3131C302.447 91.9172 302.62 88.5397 304.501 85.1745C305.367 83.6208 306.554 82.5339 308.563 82.7734C310.482 83.0068 311.797 84.0937 312.092 85.8561C312.484 88.1774 313.434 88.5888 315.442 87.3115C316.462 86.6606 317.727 86.5808 318.863 86.8817C322.302 87.7967 324.561 90.5232 327.224 92.5006C328.835 93.6981 327.211 96.136 326.287 97.8493C325.466 99.3723 323.977 99.5503 322.405 99.2126C321.474 99.0099 320.435 98.8441 319.697 98.3283C316.174 95.8658 312.606 97.1308 308.993 97.9844C307.902 98.2423 307.799 99.0038 307.498 99.7407C307.016 100.92 306.323 101.915 304.982 102.357C304.25 102.596 303.217 102.492 303.5 103.831C303.731 104.942 303.769 105.912 305.053 106.594C308.216 108.264 311.078 106.674 314.037 106.103C315.814 105.759 317.618 103.867 319.37 105.581C321.064 107.239 319.748 109.253 319.254 111.077C318.959 112.164 318.189 113.232 318.246 114.282C318.445 118.028 316.026 118.735 312.939 118.845C310.174 118.949 307.401 118.765 304.719 119.821C303.082 120.466 301.581 119.588 300.246 118.698C298.122 117.273 295.76 116.966 293.027 117.07C293.842 119.367 293.72 121.283 290.928 121.897C288.342 122.468 285.98 122.352 284.8 119.514C284.646 119.146 284.357 118.483 284.248 118.507C281.11 119.115 278.71 116.069 275.623 116.868C273.903 117.316 273.101 116.726 272.985 115.228C272.831 113.269 272.119 111.058 274.93 110.039C276.149 109.597 275.841 108.479 275.649 107.644C275.366 106.41 274.275 106.582 273.306 106.754C271.304 107.11 269.873 108.141 268.731 109.8C265.33 114.749 259.785 117.021 254.26 117.789C251.103 118.225 248.131 118.477 245.295 119.907C244.044 120.54 243.229 121.277 243.511 122.775C243.986 125.293 242.664 127.092 240.796 128.64C239.75 129.506 238.332 130.163 237.986 131.508C236.888 135.788 233.795 138.478 230.323 140.983C228 142.659 226.576 144.815 226.941 147.842C227.083 149.021 226.678 150.262 226.467 151.466C226.229 152.786 225.774 154.278 226.454 155.396C229.2 159.915 231.305 164.687 235.521 168.507C239.462 172.074 244.345 171.602 248.638 173.321C250.236 173.96 251.366 172.461 252.578 171.7C256.801 169.065 257.642 169.243 259.483 173.604C260.215 175.335 261.229 175.581 262.987 175.047C267.3 173.739 269.969 175.814 268.224 179.708C265.984 184.706 266.979 187.949 271.234 191.246C273.678 193.144 275.052 196.147 276.002 199.131C276.701 201.336 277.092 203.645 275.565 205.622C274.307 207.262 274.859 208.429 276.335 209.147C281.597 211.702 283.388 215.927 283.856 221.312C284.267 226.016 286.122 230.456 288.881 234.448C290.453 236.72 289.812 239.194 289.735 241.614C289.561 246.717 291.596 248.314 296.53 246.49C303.333 243.972 308.762 240.226 309.448 232.397C309.705 229.504 310.956 226.851 313.62 225.077C314.486 224.499 314.717 223.609 314.877 222.682C315.083 221.472 315.314 220.262 315.487 219.046C316.385 212.703 318.484 211.26 324.933 212.549C326.23 212.807 327.545 212.997 328.912 212.948C327.815 211.751 326.319 211.775 324.908 211.53C321.128 210.879 319.851 209.079 320.589 205.432C320.749 204.633 320.929 203.798 321.308 203.086C323.316 199.328 324.202 195.686 322.315 191.443C321.051 188.606 322.784 185.885 324.908 183.662C327.09 181.384 329.772 179.665 332.307 177.792C335.881 175.145 338.583 172.044 339.327 167.555C339.667 165.51 340.701 163.563 341.612 161.039C338.852 162.378 336.651 163.569 334.347 164.533C331.524 165.719 330.202 165.129 329.227 162.329C328.315 159.713 327.5 157.06 326.717 154.401C325.755 151.14 324.138 148.26 322.354 145.306C319.883 141.21 318.407 136.549 316.071 132.3C315.352 130.986 315.763 129.137 317.316 128.204C318.863 127.27 320.197 128.192 321.308 129.223C323.335 131.108 324.625 133.436 325.768 135.892C328.533 141.873 332.82 146.553 338.955 149.617C341.682 150.98 344.243 150.894 346.823 149.292C351.026 146.682 354.536 143.513 356.609 139.018C357.219 137.691 357.148 136.979 355.627 136.488C352.797 135.567 350.018 134.511 347.195 133.565C342.221 131.894 339.545 128.554 339.128 123.549C338.994 121.916 339.321 120.485 341.188 119.821C342.94 119.201 344.352 119.785 345.533 120.958C346.264 121.688 346.861 122.554 347.458 123.402C348.427 124.771 349.633 125.606 351.469 125.397C354.145 125.09 356.25 125.913 357.745 128.185C358.566 129.438 359.875 130.586 361.46 129.893C363.155 129.143 362.154 127.553 361.897 126.331C361.377 123.825 360.626 121.363 360.203 118.845C359.619 115.382 361.165 113.515 364.451 113.423C367.64 113.337 369.001 114.847 368.834 118.317C368.738 120.343 371.754 123.224 373.968 122.732C376.265 122.223 376.702 123.524 377.472 124.906C379.788 129.07 380.385 133.602 380.744 138.201C381.072 142.322 382.875 145.877 385.461 149.089C386.148 149.936 387.181 150.864 387.534 148.893C388.137 145.558 388.548 142.162 387.348 138.883C386.276 135.954 386.738 134.044 389.382 132.367C390.274 131.802 391.205 131.299 392.129 130.783C395.401 128.947 397.5 126.576 396.845 122.579C396.531 120.657 396.942 118.741 398.405 117.126C400.535 114.774 402.082 114.804 403.988 117.39C404.803 118.495 405.342 119.686 405.464 121.068C405.521 121.762 405.566 122.738 406.022 123.064C408.345 124.71 409.757 126.521 408.781 129.5C408.448 130.519 409.507 130.476 410.29 130.353C413.107 129.929 414.435 131.471 415.115 133.78C415.821 136.181 415.885 138.213 413.203 139.89C409.494 142.205 408.98 145.183 411.374 147.548C416.039 141.53 422.097 137.034 428.88 133.497C435.651 129.972 439.899 132.116 440.74 139.374C441.85 148.991 440.047 158.429 437.351 167.573C421.764 220.416 386.982 255.658 330.94 269.002C255.267 287.02 178.979 242.161 159.688 169.6C158.681 165.798 156.974 162.667 154.33 159.731C144.89 149.267 135.194 139.104 124.124 130.114C111.328 119.717 97.1905 117.285 81.2692 121.504C68.6143 124.863 56.0493 128.591 43.0672 130.765C29.7256 133 16.2943 133.491 2.79874 132.828C1.82973 132.779 0.405092 133.08 0.616862 131.403C0.796546 129.936 2.07358 130.451 2.895 130.513C27.2999 132.294 50.7679 127.762 73.9343 121.025C80.9933 118.974 88.1742 117.31 95.6054 117.064C103.89 116.788 111.456 118.992 118.342 123.328C130.162 130.765 139.846 140.443 149.177 150.471C151.641 153.117 154.048 155.813 157.057 159.117C156.396 153.676 155.703 149.077 155.562 144.428C155.177 131.6 157.16 119.324 164.482 108.258C167.242 104.082 170.373 100.183 174.807 97.487C180.583 93.9806 184.472 94.8833 187.79 100.539C192.795 109.081 193.835 118.133 191.043 127.522C190.324 129.936 189.381 133.215 186.391 133.104C183.137 132.981 183.227 129.444 182.714 127.043C182.091 124.145 181.809 121.179 181.36 118.243C181.051 116.26 180.089 115.283 177.849 116.082C172.33 118.047 168.782 121.744 167.325 127.172C166.773 129.235 167.087 131.403 168.878 132.846C173.948 136.936 175.61 142.463 176.123 148.389C176.861 156.851 179.075 164.644 185.242 171.135C187.623 173.64 189.112 176.797 189.734 180.187C190.498 184.35 189.06 187.507 185.974 188.833C182.784 190.202 178.927 189.146 176.29 186.014C172.401 181.39 168.608 176.692 164.764 172.038C164.11 171.245 163.417 170.478 162.621 169.563C162.05 170.416 162.583 171.018 162.737 171.577C177.451 224.37 226.351 264.256 283.118 269.782C353.362 276.623 417.554 233.422 434.868 167.641C436.985 159.59 438.571 151.441 438.635 143.108C438.66 140.093 439.052 136.482 435.837 134.775C432.557 133.031 429.734 135.554 427.09 137.151C422.919 139.669 419.126 142.696 415.68 146.055C412.889 148.782 412.94 149.648 416.245 151.644C419.466 153.59 420.557 156.176 420.249 159.664C419.909 163.563 419.492 167.432 417.458 170.908C415.385 174.457 412.664 174.512 410.386 171.11C406.683 165.583 406.484 159.786 409.064 153.824C409.949 151.773 410.373 150.102 408.441 148.045C405.996 145.435 407.389 141.057 411.297 138.275C413.004 137.065 413.415 135.904 412.677 134.136C412.228 133.055 411.631 132.619 410.257 132.748C406.914 133.055 405.836 132.06 406.401 128.996C406.715 127.313 406.401 126.343 404.918 125.471C403.16 124.427 403.121 122.603 402.897 120.853C402.756 119.748 402.339 118.268 401.119 118.28C399.906 118.292 399.515 119.742 399.316 120.884C399.226 121.387 399.104 121.922 399.2 122.407C400.291 127.964 396.91 131.035 392.417 133.344C389.78 134.701 388.695 136.046 389.889 139.165C391.14 142.432 390.582 146.049 389.928 149.5C389.671 150.851 389.106 152.129 387.572 152.522C386.026 152.915 384.864 152.043 383.959 150.999C380.738 147.296 378.813 143.071 378.299 138.22C377.895 134.388 377.844 130.458 375.662 126.976C375.129 126.128 375.001 125.287 373.827 126.423C373.14 127.086 371.94 127.012 371.696 126.097C371.17 124.089 369.476 123.506 367.929 122.64C366.01 121.559 365.985 119.828 366.402 118.047C366.729 116.647 366.35 115.842 364.753 115.787C363.103 115.732 362.25 116.579 362.526 118.053C363.033 120.767 363.822 123.426 364.374 126.134C364.817 128.327 365.638 130.949 362.866 132.109C360.126 133.258 357.636 132.146 355.89 129.788C354.992 128.572 353.959 127.393 352.271 127.676C348.607 128.284 346.431 126.546 344.692 123.788C344.179 122.972 343.627 121.596 342.401 122.069C341.021 122.597 341.605 124.034 341.843 125.06C342.485 127.829 344.147 129.862 346.964 130.924C350.339 132.189 353.728 133.442 357.116 134.676C359.664 135.604 360.132 137.139 359.073 139.521C356.603 145.042 352.406 148.942 347.06 151.852C343.839 153.609 340.656 153.105 337.575 151.558C330.972 148.235 326.371 143.12 323.425 136.635C322.52 134.639 321.455 132.785 319.883 131.213C319.549 130.875 319.19 130.279 318.606 130.74C318.157 131.09 318.125 131.71 318.497 132.134C322.174 136.371 322.585 142.131 326.095 146.553C329.021 150.237 329.361 155.132 330.818 159.498C331.954 162.9 332.082 163.029 335.381 161.475C337.293 160.573 339.173 159.572 341.31 159.203C343.601 158.81 344.711 159.633 343.993 161.893C341.535 169.636 339.27 177.478 330.985 181.802C329.342 182.661 327.988 184.111 326.692 185.455C324.645 187.574 323.874 190.166 325.228 192.825C326.704 195.723 326.178 198.357 324.856 201.053C324.446 201.889 324.067 202.73 323.701 203.583C321.911 207.796 322.456 208.686 327.179 209.534C328.322 209.737 329.791 209.816 330.471 210.523C332.563 212.684 333.661 211.149 334.944 209.773C337.434 207.102 339.449 204.038 342.279 201.655C343.473 200.648 344.756 199.297 346.47 199.973C348.318 200.703 347.965 202.601 347.753 204.044C346.476 212.752 343.492 220.913 338.66 228.399C337.473 230.241 335.817 232.01 333.167 231.187C330.324 230.302 330.356 227.846 330.459 225.568C330.574 222.915 330.844 220.268 331.055 217.622C331.158 216.301 330.767 215.607 329.137 215.521C327.122 215.411 325.132 214.913 323.136 214.569C320.242 214.066 318.638 215.306 318.144 217.984C317.842 219.593 317.663 221.226 317.348 222.835C317.008 224.555 316.488 226.102 314.82 227.257C312.715 228.712 312.067 231.052 311.579 233.404C309.776 242.111 303.897 247.681 294.868 249.29C290.145 250.131 287.097 248.019 287.386 243.45C287.655 239.102 286.808 235.313 284.549 231.518C282.265 227.68 281.296 223.265 280.975 218.868C280.757 215.884 279.486 213.9 276.881 212.432C275.7 211.769 274.66 210.836 273.627 209.958C272.28 208.815 271.766 207.409 272.761 205.849C274.814 202.613 274.012 199.573 272.209 196.583C270.38 193.543 268.256 190.737 265.124 188.784C263.417 187.721 263.013 186.487 263.943 184.626C264.861 182.796 265.522 180.819 266.035 178.842C266.44 177.276 265.843 176.52 263.937 177.214C259.702 178.756 259.24 178.633 257.552 174.623C256.544 172.222 255.023 172.455 253.695 173.782C251.16 176.318 248.433 175.925 245.462 174.967C244.249 174.574 242.997 174.162 241.74 174.07C236.028 173.64 232.775 169.913 229.797 165.921C228.122 163.686 226.781 161.217 225.311 158.841C223.9 156.55 223.361 154.1 224.022 151.466C224.099 151.165 224.265 150.864 224.24 150.575C223.598 143.955 227.044 139.558 232.582 136.193C233.41 135.69 234.097 134.664 234.411 133.743C235.406 130.851 236.837 128.351 239.519 126.533C240.79 125.674 241.4 124.304 241.04 122.732C240.488 120.282 241.733 118.931 243.954 117.955C247.303 116.487 250.531 115.64 254.427 115.339C258.996 114.989 264.098 112.79 266.902 108.27C268.461 105.753 270.887 104.641 273.788 104.346C275.771 104.144 277.632 104.66 278.01 106.741C278.376 108.743 279.14 111.132 276.239 112.268C275.674 112.489 274.821 112.465 274.936 113.294C275.052 114.147 275.848 114 276.464 113.902C277.888 113.668 278.915 114.276 279.897 115.167C280.34 115.572 281.046 116.082 281.533 116.002C284.447 115.511 286.763 115.762 287.559 119.103C287.707 119.717 288.721 119.901 289.536 119.668C290.53 119.385 290.922 118.759 290.71 117.807C290.062 114.884 291.884 114.436 294.233 114.645C296.787 114.872 299.348 115.124 301.523 116.677C302.691 117.506 303.891 117.734 305.412 117.199C307.741 116.376 310.27 116.579 312.721 116.53C314.512 116.493 315.641 116.143 315.885 114.031C316.129 111.949 317.085 109.941 317.823 107.595C315.089 108.258 312.708 108.934 310.289 109.394C304.603 110.481 300.394 107.46 299.855 102.013C299.733 100.809 300.496 100.386 301.587 100.293C302.434 100.22 303.307 100.287 304.122 100.109C304.757 99.9679 305.219 99.4275 305.174 98.7397C305.136 98.0704 304.501 98.0642 303.987 97.9783C298.148 96.9835 293.957 93.7042 290.569 89.2336C289.504 87.8274 288.259 86.5439 286.667 85.6289C285.55 84.9841 284.46 84.8245 283.484 85.85C282.445 86.9431 282.521 88.0423 283.497 89.1415C285.364 91.2417 287.187 93.3849 289.086 95.4544C290.164 96.6273 291.069 97.88 291.512 99.3784C291.955 100.871 291.756 102.228 289.696 102.001C288.098 101.822 287.951 102.351 287.995 103.671C288.092 106.219 286.019 109.167 284.228 108.903C281.289 108.473 280.763 105.642 281.264 103.917C282.419 99.9372 280.012 98.0642 277.503 95.9763C276.457 95.1043 275.398 94.2385 274.416 93.2989C271.638 90.6583 268.378 91.1742 266.94 94.7543C265.914 97.3089 264.508 99.2679 261.71 100.121C260.26 100.564 260.177 101.712 260.273 102.866C260.517 105.814 259.195 107.153 256.281 108.535C252.2 110.475 249.01 110.051 245.218 108.209C242.523 106.901 241.753 105.427 242.754 102.897C243.261 101.62 243.652 100.349 242.997 99.0406C241.297 95.657 242.882 93.1208 245.295 90.8241C247.297 88.9143 249.845 87.7905 252.309 86.5685C256.75 84.37 258.36 80.4706 259.329 76.1412C259.612 74.8885 259.169 74.477 257.879 74.5139C255.896 74.5753 254.074 74.9008 252.63 76.3746C251.244 77.787 249.537 78.5178 247.464 78.3458C244.313 78.0817 242.876 76.3991 243.922 73.5805C244.993 70.6881 245.102 68.1703 243.395 65.4069C242.189 63.4603 243.28 61.4338 244.615 59.7205C246.123 57.7799 248.009 56.1157 248.086 53.3646C248.125 51.8847 249.46 51.0741 251.083 51.2644C252.758 51.4609 253.958 52.3882 253.933 54.0463C253.913 55.6613 254.138 56.8772 255.569 58.0317C257.09 59.2599 256.358 61.096 255.871 62.6497C255.229 64.6946 255.466 66.2298 257.821 67.0773C258.585 67.3536 259.483 67.9124 259.798 68.5695C261.312 71.7259 262.865 70.467 265.022 69.0915C267.897 67.2615 270.733 64.9709 274.635 65.4745C276.797 65.7508 278.427 66.8562 280.211 67.9738C280.866 68.3853 283.208 65.8122 285.473 65.9289C287.213 66.021 288.836 66.4939 290.485 66.8869C291.313 67.0834 292.372 67.5685 292.873 66.8562C293.521 65.9473 292.295 65.4868 291.737 64.9771C290.132 63.5032 288.695 61.9312 289.427 59.6345C290.248 57.0737 292.558 56.5763 295.042 56.5456C293.765 52.5602 294.085 52.0259 298.302 51.4732C299.765 51.2828 300.868 50.8837 300.753 49.2932C300.625 47.5123 299.168 47.6106 297.878 47.7211C296.068 47.8746 294.278 48.2554 292.468 48.3291C288.836 48.4765 287.604 46.9535 288.438 43.5883C289.086 40.9661 290.748 38.7615 291.666 36.2561C291.961 35.4516 292.712 34.5919 291.974 33.6769C291.615 33.2286 291.037 33.2102 290.511 33.4128C289.138 33.9532 289.568 35.034 289.651 36.035C289.831 38.3255 288.958 40.2968 287.302 41.8627C284.832 44.2024 284.768 46.671 286.571 49.3239C287.463 50.6381 287.906 52.1671 286.898 53.3462C284.934 55.6552 284.35 58.437 283.259 61.0776C282.246 63.5462 280.385 63.6568 278.71 61.4767C277.311 59.659 276.335 57.5896 275.661 55.4218C275.219 53.9848 274.416 53.7146 273.043 54.255C271.567 54.8384 270.066 55.4157 268.532 55.8271C266.08 56.4842 263.501 56.779 261.755 54.5744C259.952 52.3022 260.805 49.9011 262.211 47.7027C262.763 46.8368 263.488 46.0692 264.168 45.2832C264.72 44.6507 265.291 44.0919 265.066 43.1277C264.406 40.2722 266.157 39.001 268.667 38.2519C269.071 38.129 269.462 37.9571 269.854 37.7913C272.01 36.8947 274.551 36.1762 274.763 33.4988C274.981 30.7415 273.364 28.6106 271.105 27.0386C267.974 24.8585 264.354 24.4901 260.677 25.098C251.783 26.5657 243.973 30.1766 237.889 36.6614C233.205 41.6539 227.705 45.3385 221.153 47.6597C208.331 52.204 202.229 61.3662 201.369 74.0963C201.099 78.0756 201.035 82.0733 200.778 86.0526C200.701 87.2624 200.438 88.4967 200.034 89.6451C198.744 93.348 196.524 94.1095 193.713 91.3584C190.883 88.5888 187.777 88.0484 184.087 88.595C182.508 88.8283 180.891 88.8775 179.287 88.9143C171.894 89.0862 168.076 84.2227 170.315 77.4062C171.541 73.6726 173.678 70.3319 175.667 66.9544C195.67 32.9707 226.114 12.4294 265.394 3.3531C282.233 -0.534095 299.283 -0.589363 316.411 0.921299C316.623 0.939722 316.841 0.952004 317.046 0.99499C319.004 1.39415 321.487 1.25291 322.321 3.31011C323.201 5.48399 320.974 6.71831 319.735 8.19213C316.751 11.7477 312.984 14.0567 308.345 15.1436C307.119 15.4323 305.951 16.0279 304.815 16.5806C302.749 17.5877 302.364 19.215 304.379 20.2897C308.967 22.7399 308.929 26.7806 309.018 30.9073C309.07 33.2532 308.967 35.6051 309.506 37.9387C310.077 40.395 311.367 40.7328 313.337 39.2712C316.758 36.7412 319.344 33.4619 321.975 30.238C325.19 26.2955 326.217 25.8964 331.267 27.4193C335.034 28.5554 338.718 29.9309 342.465 31.1284C344.256 31.6995 346.277 32.068 347.188 29.9801C348.068 27.9658 348.273 25.8288 346.072 24.1769C341.862 21.0205 337.665 17.8272 334.226 13.8725C332.827 12.2635 330.625 10.5318 331.896 8.2781C333.07 6.19019 335.74 6.95781 337.806 7.0622C343.126 7.32626 348.029 9.16853 352.861 11.0845C368.006 17.0903 381.636 25.4481 393.964 35.7525C395.62 37.1403 398.726 38.6633 397.314 40.9784C396.018 43.097 392.956 41.6048 390.768 41.0644C385.467 39.7502 380.578 37.3983 375.713 35.0524C369.039 31.8285 362.397 28.5369 355.723 25.3068C353.933 24.441 352.104 23.6181 349.755 23.2435C350.153 24.6129 351.251 25.055 352.104 25.62C361.454 31.7916 370.085 38.8168 378.543 46.0385C379.91 47.2053 380.982 47.4571 382.747 46.8307C395.299 42.397 402.024 44.0304 410.886 53.7392C419.094 62.7234 424.337 73.3717 428.996 84.2902C433.122 93.956 436.62 103.837 438.988 114.043C441.503 124.918 449.172 131.624 459.087 136.132C476.15 143.888 494.125 147.075 513.03 144.968C524.389 143.703 535.619 141.487 547.035 140.651C558.593 139.804 569.881 140.86 580.803 144.735C581.503 144.987 582.208 145.226 582.889 145.521C583.55 145.81 584.307 146.006 583.915 147.05C583.485 148.192 582.773 148.02 581.9 147.67C565.081 140.903 547.812 142.309 530.44 144.981C518.613 146.798 506.76 148.745 494.722 147.689C480.982 146.491 467.743 143.378 455.531 137.004C445.257 131.637 438.705 123.813 435.997 112.538C431.986 95.8412 425.576 79.8933 416.405 65.0753C413.671 60.66 410.578 56.4965 406.709 52.9102C399.175 45.9218 392.706 44.9577 382.836 49.502L382.811 49.4836ZM158.084 143.372C157.988 147.916 158.739 153.799 159.804 159.645C160.054 161.027 160.003 162.562 160.978 163.741C166.876 170.877 172.754 178.025 178.754 185.081C180.352 186.96 182.669 187.758 185.088 186.604C187.443 185.48 187.687 183.269 187.405 181.022C187.007 177.871 185.563 175.034 183.413 172.781C176.701 165.737 174.384 157.244 173.588 148.063C173.177 143.329 171.945 138.742 167.98 135.389C164.347 132.312 163.892 128.578 165.541 124.513C167.351 120.049 170.585 116.69 175.09 114.602C180.435 112.127 182.803 113.294 183.875 118.863C184.498 122.075 184.87 125.33 185.447 128.554C185.563 129.186 185.627 130.175 186.538 130.224C187.437 130.273 187.61 129.352 187.822 128.701C190.979 118.992 190.928 109.56 185.024 100.693C182.951 97.573 180.897 97.0756 177.426 98.7336C173.89 100.422 171.323 103.167 169.006 106.133C160.677 116.757 158.02 128.978 158.071 143.366L158.084 143.372ZM393.431 73.5375C393.515 65.9105 387.406 55.1271 380.744 51.1109C380.276 50.8284 379.897 50.6442 379.294 50.7547C372.883 51.9399 367.685 60.5003 370.124 66.3956C372.986 73.3225 378.55 77.5905 386.013 79.3713C390.691 80.489 393.38 78.18 393.431 73.5375ZM394.471 39.7441C393.938 39.0256 393.797 38.737 393.566 38.5466C379.455 26.7254 363.925 17.1456 346.11 11.2135C343.691 10.409 341.259 9.60454 338.653 9.54313C337.71 9.51856 336.619 9.34662 336.042 10.2923C335.374 11.3915 336.196 12.2697 336.844 13.0373C339.417 16.0709 342.587 18.515 345.764 20.9406C346.078 21.1801 346.611 21.5547 346.836 21.4503C350.904 19.6081 354.093 22.1504 357.321 23.5935C365.734 27.3517 373.974 31.4723 382.323 35.3595C386.039 37.0912 389.761 38.8598 394.465 39.7502L394.471 39.7441ZM332.833 225.623C332.987 226.9 332.371 228.448 334.104 228.829C335.618 229.166 336.401 227.883 337.011 226.851C340.951 220.152 343.492 212.936 345.404 205.499C345.603 204.726 345.866 203.725 344.878 203.338C344.14 203.049 343.543 203.786 343.03 204.277C339.776 207.354 337.466 211.247 333.86 214.023C333.378 214.391 333.378 214.901 333.423 215.411C333.738 218.887 333.423 222.325 332.833 225.623ZM259.041 72.1619C258.309 69.9512 256.955 69.1713 255.473 68.5511C253.547 67.7466 252.219 66.1193 253.098 64.4489C255.364 60.1503 250.307 57.6571 250.775 53.7761C250.563 56.779 248.6 58.6765 246.874 60.7091C245.475 62.361 245.006 64.0314 246.36 66.021C247.823 68.1581 247.464 70.4977 246.707 72.819C246.411 73.7217 245.398 74.7779 246.533 75.5947C247.656 76.4053 249.139 76.2333 250.069 75.2815C252.437 72.8804 255.338 71.9408 259.034 72.1619H259.041ZM305.47 90.1241C305.431 94.0665 308.319 96.1667 311.932 94.8157C314.018 94.0358 315.885 94.2937 317.81 95.0368C319.19 95.571 320.544 96.1851 321.943 96.6825C323.412 97.2045 324.337 96.701 324.895 95.2579C325.44 93.8454 324.985 93.2007 323.554 92.7892C322.764 92.562 321.757 92.1813 321.404 91.5733C319.658 88.5765 317.438 88.8161 314.685 90.1793C312.638 91.1926 310.969 90.6522 310.244 88.3125C309.866 87.0905 309.866 85.1684 308.165 85.2605C306.285 85.3649 306.169 87.3607 305.739 88.8038C305.592 89.295 305.534 89.8047 305.47 90.1241ZM417.971 159.203C418.061 156.243 416.213 153.707 413.325 152.595C412.478 152.27 412.17 152.534 411.894 153.167C409.526 158.657 408.634 164.122 412.215 169.501C412.664 170.177 413.023 171.116 414.012 171.018C414.942 170.926 415.276 169.993 415.629 169.268C417.182 166.081 417.676 162.66 417.965 159.203H417.971Z" fill="#0D3E62"/>
  </svg>