<svg xmlns="http://www.w3.org/2000/svg" width="175" height="42" viewBox="0 0 175 42" fill="none">
    <path d="M65.5018 31.2837V9.7395H73.3598C74.964 9.7395 76.3235 10.0186 77.4111 10.6046C78.4987 11.1907 79.3416 11.9721 79.9126 13.0046C80.4836 14.0372 80.7555 15.2372 80.7555 16.6046C80.7555 17.9721 80.4564 19.1721 79.9126 20.2046C79.3416 21.2093 78.4987 21.9907 77.3839 22.5488C76.2691 23.1069 74.9096 23.386 73.3054 23.386H67.7042V20.1488H72.7888C73.7405 20.1488 74.5018 20.0093 75.1 19.7302C75.6982 19.4511 76.1332 19.0604 76.4323 18.5302C76.7314 18 76.8673 17.3581 76.8673 16.6046C76.8673 15.8511 76.7314 15.1814 76.4323 14.6511C76.1332 14.1209 75.6982 13.7023 75.1 13.4232C74.5018 13.1442 73.7133 13.0046 72.7616 13.0046H69.2812V31.2837H65.4746H65.5018ZM76.3507 21.5162L81.5441 31.2837H77.3024L72.1906 21.5162H76.3507Z" fill="white"/>
    <path d="M83.4199 31.2838V9.73956H97.0694V13.0047H87.2266V18.8651H96.3625V22.1303H87.2266V28.0186H97.151V31.2838H83.4199Z" fill="white"/>
    <path d="M114.146 16.6325C113.983 16.0744 113.738 15.5442 113.439 15.0977C113.14 14.6511 112.787 14.2604 112.379 13.9256C111.971 13.5907 111.481 13.3674 110.965 13.2C110.421 13.0325 109.85 12.9488 109.225 12.9488C108.11 12.9488 107.104 13.2279 106.207 13.8139C105.336 14.4 104.629 15.2372 104.14 16.3814C103.651 17.4977 103.379 18.8651 103.379 20.4837C103.379 22.1023 103.623 23.4977 104.113 24.6139C104.602 25.7302 105.309 26.5953 106.207 27.1814C107.104 27.7674 108.137 28.0744 109.306 28.0744C110.367 28.0744 111.291 27.8511 112.08 27.4325C112.868 27.0139 113.466 26.4 113.901 25.6465C114.336 24.893 114.527 23.9721 114.527 22.9116L115.397 23.0511H109.687V20.0093H118.197V22.6046C118.197 24.4465 117.817 26.0372 117.055 27.4046C116.294 28.7442 115.234 29.7767 113.901 30.5023C112.569 31.2279 111.019 31.5907 109.279 31.5907C107.349 31.5907 105.636 31.1442 104.194 30.2511C102.726 29.3581 101.611 28.0744 100.768 26.4279C99.9528 24.7814 99.5449 22.8 99.5449 20.5395C99.5449 18.8093 99.7896 17.2465 100.279 15.8791C100.768 14.5116 101.448 13.3395 102.291 12.3907C103.134 11.4418 104.167 10.7163 105.336 10.2139C106.506 9.71161 107.784 9.46045 109.143 9.46045C110.312 9.46045 111.4 9.62789 112.379 9.99068C113.358 10.3535 114.282 10.8279 115.071 11.4698C115.859 12.1116 116.484 12.8651 117.001 13.7302C117.518 14.5953 117.844 15.5721 118.007 16.6325H114.146Z" fill="white"/>
    <path d="M120.998 31.2837V9.7395H134.648V13.0046H124.805V18.8651H133.941V22.1302H124.805V28.0186H134.729V31.2837H120.998Z" fill="white"/>
    <path d="M154.93 9.7395V31.2837H151.558L141.661 16.6046H141.498V31.2837H137.691V9.7395H141.09L150.96 24.4186H151.151V9.7395H154.93Z" fill="white"/>
    <path d="M157.269 13.0046V9.7395H174.019V13.0046H167.52V31.2837H163.741V13.0046H157.242H157.269Z" fill="white"/>
    <path d="M49.5686 38.5117H4.62305V42H49.5686V38.5117Z" fill="white"/>
    <path d="M53.3749 4.91163L40.0789 16.6326L37.958 13.8698L36.7888 12.3628L35.9731 11.3023L27.4354 0.167442C27.2451 -0.055814 26.9188 -0.055814 26.7284 0.167442L18.7345 10.5767L14.085 16.6047L0.816117 4.91163C0.462644 4.60465 -0.0811615 4.91163 0.000409322 5.38605L4.4868 33.8512C4.54118 34.214 5.00342 34.3535 5.24813 34.0465L12.3992 24.7535L14.52 21.9907L26.81 32.8186C26.9732 32.9581 27.1907 32.9581 27.3538 32.8186L39.6438 21.9907L41.7647 24.7535L49.0245 34.186C49.2148 34.4372 49.5955 34.3256 49.6498 34.0186L54.1634 5.35814C54.245 4.88372 53.7012 4.57674 53.3477 4.88372L53.3749 4.91163ZM9.68014 22.3814L8.61972 23.7767V23.8326H8.59253L6.66203 26.3442L4.59556 13.2279L11.8282 19.6186L9.70733 22.3814H9.68014ZM27.0819 28.0744L16.804 19.0047L20.6106 14.0651L27.0275 5.72093C27.0275 5.72093 27.1363 5.66512 27.1635 5.72093L32.8191 13.0605L37.387 19.0047L27.1091 28.0744H27.0819ZM47.529 26.3163L45.1906 23.2744L44.5109 22.3814L42.39 19.6186L49.6226 13.2558L47.5562 26.3721L47.529 26.3163Z" fill="white"/>
  <defs>
      <rect width="174.018" height="42" fill="white"/>
  </defs>
</svg>