<svg width="62" height="48" viewBox="0 0 62 48" fill="none" xmlns="http://www.w3.org/2000/svg">
<path d="M56.6495 44.0132H5.2832V47.9999H56.6495V44.0132Z" fill="#AD1C44"/>
<path d="M60.9991 5.61329L45.8036 19.0086L43.3798 15.8512L42.0436 14.1289L41.1113 12.9169L31.3539 0.191362C31.1364 -0.0637874 30.7635 -0.0637874 30.546 0.191362L21.41 12.0877L16.0963 18.9767L0.931869 5.61329C0.527899 5.26246 -0.093593 5.61329 -0.000369257 6.15548L5.12694 38.687C5.18909 39.1017 5.71736 39.2611 5.99703 38.9103L14.1696 28.2897L16.5935 25.1322L30.6392 37.507C30.8256 37.6664 31.0742 37.6664 31.2607 37.507L45.3064 25.1322L47.7302 28.2897L56.0271 39.0698C56.2446 39.3568 56.6797 39.2292 56.7418 38.8784L61.9002 6.12359C61.9934 5.5814 61.372 5.23056 60.968 5.5814L60.9991 5.61329ZM11.0622 25.5787L9.85028 27.1734V27.2372H9.8192L7.61291 30.1076L5.25124 15.1176L13.5171 22.4213L11.0933 25.5787H11.0622ZM30.9499 32.0851L19.2037 21.7196L23.5542 16.0744L30.8878 6.53821C30.8878 6.53821 31.0121 6.47442 31.0431 6.53821L37.5067 14.9262L42.7272 21.7196L30.981 32.0851H30.9499ZM54.318 30.0757L51.6456 26.5993L50.8687 25.5787L48.4449 22.4213L56.7108 15.1495L54.3491 30.1395L54.318 30.0757Z" fill="#AD1C44"/>
</svg>
