<svg width="125" height="27" viewBox="0 0 125 27" fill="none" xmlns="http://www.w3.org/2000/svg">
<path d="M0.8592 25.7528V1.13086H9.83976C11.6732 1.13086 13.2269 1.4498 14.4699 2.11956C15.7129 2.78933 16.6762 3.68235 17.3287 4.86242C17.9813 6.04249 18.292 7.41392 18.292 8.97671C18.292 10.5395 17.9502 11.9109 17.3287 13.091C16.6762 14.2392 15.7129 15.1322 14.4388 15.7701C13.1647 16.4079 11.611 16.7269 9.77761 16.7269H3.37624V13.0272H9.18719C10.2748 13.0272 11.1449 12.8677 11.8285 12.5488C12.5122 12.2299 13.0094 11.7834 13.3512 11.1774C13.693 10.5714 13.8484 9.83784 13.8484 8.97671C13.8484 8.11558 13.693 7.35013 13.3512 6.74415C13.0094 6.13817 12.5122 5.65976 11.8285 5.34083C11.1449 5.02189 10.2437 4.86242 9.15612 4.86242H5.17857V25.7528H0.828125H0.8592ZM13.258 14.59L19.1932 25.7528H14.3456L8.50355 14.59H13.258Z" fill="#AD1C44"/>
<path d="M21.3379 25.7528V1.13086H36.9373V4.86242H25.6883V11.5601H36.1294V15.2917H25.6883V22.0212H37.0306V25.7528H21.3379Z" fill="#AD1C44"/>
<path d="M56.4507 9.00869C56.2643 8.37081 55.9846 7.76483 55.6428 7.25454C55.301 6.74424 54.897 6.29772 54.4309 5.915C53.9648 5.53228 53.4054 5.27713 52.815 5.08577C52.1935 4.8944 51.5409 4.79872 50.8262 4.79872C49.5522 4.79872 48.4024 5.11766 47.3769 5.78743C46.3826 6.45719 45.5746 7.414 45.0153 8.72164C44.4559 9.99739 44.1452 11.5602 44.1452 13.41C44.1452 15.2599 44.4249 16.8545 44.9842 18.1303C45.5435 19.406 46.3515 20.3947 47.3769 21.0645C48.4024 21.7343 49.5832 22.0851 50.9195 22.0851C52.1314 22.0851 53.1879 21.8299 54.0891 21.3515C54.9902 20.8731 55.6739 20.1715 56.1711 19.3103C56.6682 18.4492 56.8858 17.3967 56.8858 16.1848L57.8802 16.3442H51.3545V12.8678H61.0808V15.8339C61.0808 17.9389 60.6458 19.7569 59.7757 21.3196C58.9056 22.8505 57.6937 24.0306 56.1711 24.8598C54.6484 25.6891 52.8771 26.1037 50.8884 26.1037C48.6821 26.1037 46.7244 25.5934 45.0774 24.5728C43.3994 23.5522 42.1253 22.0851 41.162 20.2034C40.2298 18.3216 39.7637 16.0572 39.7637 13.4738C39.7637 11.4964 40.0433 9.71035 40.6027 8.14756C41.162 6.58477 41.9389 5.24523 42.9022 4.16085C43.8655 3.07646 45.0464 2.24723 46.3826 1.67314C47.7188 1.09905 49.1793 0.812012 50.733 0.812012C52.0692 0.812012 53.3122 1.00337 54.4309 1.41799C55.5496 1.83261 56.6061 2.3748 57.5073 3.10836C58.4084 3.84191 59.1231 4.70304 59.7136 5.69175C60.304 6.68045 60.6769 7.79673 60.8633 9.00869H56.4507Z" fill="#AD1C44"/>
<path d="M64.2832 25.7528V1.13086H79.8827V4.86242H68.6337V11.5601H79.0747V15.2917H68.6337V22.0212H79.9759V25.7528H64.2832Z" fill="#AD1C44"/>
<path d="M103.063 1.13086V25.7528H99.2094L87.8982 8.97671H87.7118V25.7528H83.3613V1.13086H87.2457L98.5257 17.9069H98.7433V1.13086H103.063Z" fill="#AD1C44"/>
<path d="M105.736 4.86242V1.13086H124.878V4.86242H117.451V25.7528H113.132V4.86242H105.705H105.736Z" fill="#AD1C44"/>
</svg>
